<svg id="Capa_1" enable-background="new 0 0 512.009 512.009" height="512" viewBox="0 0 512.009 512.009" width="512" xmlns="http://www.w3.org/2000/svg"><g id="XMLID_1365_"><g id="XMLID_76_"><path id="XMLID_99_" d="m145.723 270.673c14.373-6.677 24.368-21.242 24.368-38.106 0-13.623-6.524-25.746-16.606-33.425 5.348-6.009 8.606-13.917 8.606-22.575 0-15.268-10.118-28.217-24-32.497v-6.671c0-2.54 1.614-4.789 4.112-5.728 16.726-6.287 27.135-22.515 25.903-40.38-1.368-19.835-17.356-35.824-37.191-37.191-11.255-.78-21.976 3.02-30.19 10.688-8.101 7.561-12.747 18.25-12.747 29.328 0 5.523 4.477 10 10 10s10-4.477 10-10c0-5.636 2.271-10.859 6.394-14.708 4.118-3.844 9.51-5.739 15.167-5.355 9.927.685 17.93 8.688 18.615 18.615.619 8.979-4.6 17.131-12.988 20.284-10.212 3.839-17.074 13.664-17.074 24.448v6.671c-13.882 4.281-24 17.229-24 32.497 0 8.658 3.258 16.566 8.606 22.575-10.083 7.679-16.606 19.802-16.606 33.425 0 16.863 9.995 31.429 24.368 38.106l-61.489 77.326c-32.008 40.253-28.722 98.03 7.642 134.395 19.239 19.239 45.052 29.615 71.5 29.615 9.513 0 19.112-1.344 28.511-4.1 5.299-1.554 8.335-7.11 6.781-12.41-1.555-5.299-7.11-8.335-12.41-6.781-28.511 8.359-59.256.519-80.24-20.466-29.17-29.169-31.805-75.515-6.13-107.803l63.467-79.814 63.466 79.814c16.402 20.626 21.759 48.052 14.329 73.363-1.556 5.299 1.479 10.856 6.779 12.412 5.301 1.557 10.856-1.479 12.412-6.779 9.26-31.547 2.581-65.731-17.865-91.444zm-31.631-94.106c0-7.72 6.28-14 14-14s14 6.28 14 14-6.28 14-14 14-14-6.28-14-14zm14 34c12.131 0 22 9.869 22 22s-9.869 22-22 22-22-9.869-22-22 9.869-22 22-22z"/><path id="XMLID_1174_" d="m172.773 375.385-36.854-46.348c-1.897-2.386-4.779-3.776-7.827-3.776s-5.93 1.39-7.827 3.776l-36.855 46.348c-18.075 22.731-16.22 55.359 4.316 75.895 10.768 10.768 25.103 16.699 40.366 16.699 15.262 0 29.598-5.931 40.367-16.698 20.534-20.536 22.39-53.164 4.314-75.896zm-18.457 61.754c-6.991 6.99-16.305 10.84-26.225 10.84s-19.233-3.85-26.223-10.841c-13.341-13.341-14.547-34.538-2.804-49.305l29.028-36.505 29.027 36.505c11.743 14.768 10.538 35.965-2.803 49.306z"/><path id="XMLID_1675_" d="m463.039 294-61.489-77.327c14.373-6.677 24.368-21.242 24.368-38.106 0-13.623-6.524-25.746-16.606-33.425 5.348-6.009 8.606-13.917 8.606-22.575 0-15.268-10.118-28.217-24-32.497v-6.671c0-2.54 1.614-4.788 4.112-5.728 16.726-6.287 27.135-22.515 25.903-40.38-1.368-19.835-17.357-35.824-37.191-37.191-11.262-.776-21.976 3.02-30.19 10.687-8.1 7.562-12.746 18.251-12.746 29.328 0 5.523 4.477 10 10 10s10-4.477 10-10c0-5.636 2.271-10.859 6.394-14.708 4.118-3.844 9.502-5.743 15.167-5.355 9.927.685 17.93 8.688 18.615 18.615.619 8.979-4.6 17.131-12.988 20.284-10.213 3.839-17.075 13.665-17.075 24.448v6.671c-13.882 4.281-24 17.229-24 32.497 0 8.658 3.258 16.566 8.606 22.575-10.083 7.679-16.606 19.802-16.606 33.425 0 16.864 9.995 31.429 24.368 38.106l-61.49 77.327c-32.008 40.253-28.722 98.03 7.643 134.395 19.707 19.706 45.592 29.56 71.478 29.56s51.772-9.854 71.479-29.56c36.364-36.365 39.65-94.141 7.642-134.395zm-93.121-171.433c0-7.72 6.28-14 14-14s14 6.28 14 14-6.28 14-14 14-14-6.28-14-14zm14 34c12.131 0 22 9.869 22 22s-9.869 22-22 22-22-9.869-22-22 9.869-22 22-22zm57.337 257.685c-31.616 31.616-83.057 31.616-114.673 0-29.17-29.169-31.805-75.515-6.13-107.803l63.466-79.814 63.467 79.814c25.674 32.288 23.039 78.634-6.13 107.803z"/><path id="XMLID_1684_" d="m391.745 275.038c-1.897-2.386-4.779-3.776-7.827-3.776s-5.93 1.39-7.827 3.776l-36.855 46.348c-18.075 22.731-16.22 55.359 4.316 75.895 10.768 10.768 25.103 16.699 40.366 16.699 15.262 0 29.598-5.931 40.367-16.698 20.536-20.536 22.391-53.164 4.315-75.896zm18.397 108.101c-6.991 6.99-16.305 10.84-26.225 10.84s-19.233-3.85-26.223-10.841c-13.341-13.341-14.547-34.538-2.804-49.305l29.028-36.505 29.027 36.505c11.743 14.768 10.538 35.965-2.803 49.306z"/><path id="XMLID_1686_" d="m192.494 465.321c-2.63 0-5.2 1.07-7.07 2.93-1.86 1.86-2.93 4.44-2.93 7.07s1.07 5.21 2.93 7.07c1.87 1.87 4.44 2.93 7.07 2.93 2.64 0 5.21-1.06 7.08-2.93 1.86-1.86 2.92-4.43 2.92-7.07 0-2.63-1.06-5.21-2.92-7.07-1.87-1.86-4.439-2.93-7.08-2.93z"/></g></g></svg>