<?xml version="1.0" encoding="iso-8859-1"?>
<!-- Generator: Adobe Illustrator 16.0.0, SVG Export Plug-In . SVG Version: 6.00 Build 0)  -->
<!DOCTYPE svg PUBLIC "-//W3C//DTD SVG 1.1//EN" "http://www.w3.org/Graphics/SVG/1.1/DTD/svg11.dtd">
<svg version="1.1" id="Capa_1" xmlns="http://www.w3.org/2000/svg" xmlns:xlink="http://www.w3.org/1999/xlink" x="0px" y="0px"
	 width="61.761px" height="61.761px" viewBox="0 0 61.761 61.761" style="enable-background:new 0 0 61.761 61.761;"
	 xml:space="preserve">
<g>
	<g>
		<path d="M45.655,43.718c0,0-0.038,0.04-0.107,0.107c-3.965-1.587-8.39-0.422-11.851-3.527c-3.498-3.137-6.139-8.059-9.034-11.783
			c-3.185-4.1-6.469-8.122-9.807-12.097c-2.375-2.826-4.553-6.097-7.6-8.239C6.825,7.333,6.435,6.982,5.743,7.481
			c-0.32,0.072-0.567,0.328-0.67,0.64c-0.393,0.445-0.861,1.071-1.441,1.917c-3.944,5.765-4.551,10.771-2.427,16.537
			c2.124,5.765,1.669,26.094,1.669,26.094s0.911,1.213,1.821,0.606c0.911-0.606-1.213-19.874,0.456-22.15
			c0,0,7.13-3.945,13.199,9.558c6.069,13.502,8.951,13.805,13.199,13.805c4.249,0,16.689,0.304,25.791-1.366
			C66.441,51.454,60.979,48.117,45.655,43.718z M31.851,45.993c-5.462-6.372-18.661-28.37-21.998-32.921
			c-0.061-0.082-0.117-0.165-0.174-0.247c1.79,2.008,3.384,4.277,5.002,6.203c4.026,4.793,7.906,9.709,11.707,14.681
			c2.253,2.947,4.195,6.237,6.973,8.728c3.055,2.741,7.051,1.677,10.633,2.753C41.28,47.339,35.809,50.612,31.851,45.993z"/>
	</g>
</g>
<g>
</g>
<g>
</g>
<g>
</g>
<g>
</g>
<g>
</g>
<g>
</g>
<g>
</g>
<g>
</g>
<g>
</g>
<g>
</g>
<g>
</g>
<g>
</g>
<g>
</g>
<g>
</g>
<g>
</g>
</svg>
